
<svg xmlns="http://www.w3.org/2000/svg" style="display:none;">
    <symbol id="icon-home" viewBox="0 0 24 24">
    <path d="M10 20v-6h4v6h5v-8h3L12 3 2 12h3v8z"/>
    </symbol>
    <symbol id="icon-settings" viewBox="0 0 24 24">
    <path d="M19.14 12.94l1.43-2.48-1.43-2.49-3.1 1.76v-3.52l-2.69-1.55-2.68 1.55v3.52L5.44 7.97 4.01 10.46l1.43 2.48-1.43 2.48 3.1-1.76v3.52l2.68 1.55 2.69-1.55v-3.52l3.1 1.76zm-6.14-2.94a2 2 0 1 1 0-4 2 2 0 0 1 0 4z"/>
    </symbol>
    <symbol id="icon_creativeSolution" viewBox="0 0 333 108">
            <svg viewBox="0 0 333 108"><title>web</title><g id="Capa_7" data-name="Capa 7"><path d="M3.15,64.29a14.6,14.6,0,0,1,1.71-7.38A14.75,14.75,0,0,1,9.2,52.12,17.62,17.62,0,0,1,15,49.5a25,25,0,0,1,6.12-.8A19.72,19.72,0,0,1,31,51.1a23.18,23.18,0,0,1,7,6l-7.91,5.7a14.85,14.85,0,0,0-3.84-3.19A10.4,10.4,0,0,0,21,58.28a12.26,12.26,0,0,0-2.51.27,7.35,7.35,0,0,0-2.4,1,5.75,5.75,0,0,0-1.79,1.75,4.86,4.86,0,0,0-.68,2.66,5.1,5.1,0,0,0,.72,2.7,7.27,7.27,0,0,0,2.09,2.13,20.59,20.59,0,0,0,3.35,1.82c1.32.59,2.81,1.18,4.49,1.79q2.12.84,4.67,2a20.26,20.26,0,0,1,4.76,3A15.42,15.42,0,0,1,37.33,82a14.85,14.85,0,0,1,1.49,7,15.41,15.41,0,0,1-1.71,7.57,14.56,14.56,0,0,1-4.41,4.94,18,18,0,0,1-5.94,2.66,25.67,25.67,0,0,1-6.27.8,20.33,20.33,0,0,1-10.61-2.66,29.55,29.55,0,0,1-7.79-6.77l7.83-5.7a18.56,18.56,0,0,0,4.45,3.84,11.32,11.32,0,0,0,6.2,1.71,12.4,12.4,0,0,0,2.66-.3,9.39,9.39,0,0,0,2.55-1,5.66,5.66,0,0,0,1.93-1.87,5.09,5.09,0,0,0,.76-2.85,5.32,5.32,0,0,0-.79-2.92,8.67,8.67,0,0,0-2.21-2.29,18.69,18.69,0,0,0-3.27-1.86c-1.24-.56-2.6-1.11-4.07-1.67S14.81,79.27,13,78.51a19.68,19.68,0,0,1-4.87-3A14.4,14.4,0,0,1,4.56,71,14.43,14.43,0,0,1,3.15,64.29Z" style="fill:none;stroke:#ecc63f;stroke-miterlimit:10;stroke-width:2px"/><path d="M43.15,84.59a19.61,19.61,0,0,1,1.63-8,21,21,0,0,1,38.56,0,20.37,20.37,0,0,1,0,16,21,21,0,0,1-38.56,0A19.69,19.69,0,0,1,43.15,84.59Zm9.58-.07A11.39,11.39,0,0,0,53.64,89a12.94,12.94,0,0,0,2.44,3.77,11,11,0,0,0,3.61,2.58,10.49,10.49,0,0,0,4.45,1,10.09,10.09,0,0,0,4.33-1,11.7,11.7,0,0,0,3.61-2.58A12.17,12.17,0,0,0,74.52,89a11.72,11.72,0,0,0,.87-4.48,11.71,11.71,0,0,0-3.31-8.14,12.31,12.31,0,0,0-3.61-2.55,10.24,10.24,0,0,0-4.33-1,10.65,10.65,0,0,0-4.45,1,11.57,11.57,0,0,0-3.61,2.55,12.36,12.36,0,0,0-2.44,3.73A11.23,11.23,0,0,0,52.73,84.52Z" style="fill:none;stroke:#ecc63f;stroke-miterlimit:10;stroke-width:2px"/><path d="M100,103.45h-10V50.22h10Z" style="fill:none;stroke:#ecc63f;stroke-miterlimit:10;stroke-width:2px"/><path d="M116.83,86.57a8.6,8.6,0,0,0,2.47,6.35,8.31,8.31,0,0,0,6.12,2.47,9,9,0,0,0,3.46-.68,8.38,8.38,0,0,0,2.82-1.91A9.3,9.3,0,0,0,133.56,90a8.49,8.49,0,0,0,.68-3.42V65.43h10v38h-10V100a15.89,15.89,0,0,1-5.05,3.42,16,16,0,0,1-12.44-.08,16.66,16.66,0,0,1-5.17-3.49,16.72,16.72,0,0,1-4.79-11.79V65.43h10Z" style="fill:none;stroke:#ecc63f;stroke-miterlimit:10;stroke-width:2px"/><path d="M156.07,73.57h-7.38V65.43h7.38V54.94h10V65.43h7.3v8.14H166v29.88h-10Z" style="fill:none;stroke:#ecc63f;stroke-miterlimit:10;stroke-width:2px"/><path d="M177.05,54.18a6.11,6.11,0,1,1,1.79,4.29A5.86,5.86,0,0,1,177.05,54.18Zm1.07,11.25h10v38h-10Z" style="fill:none;stroke:#ecc63f;stroke-miterlimit:10;stroke-width:2px"/><path d="M193.4,84.59a19.61,19.61,0,0,1,1.64-8,20.78,20.78,0,0,1,11.14-11,21.12,21.12,0,0,1,22.92,4.41,20.9,20.9,0,0,1,4.49,6.54,20.37,20.37,0,0,1,0,16,21,21,0,0,1-38.55,0A19.7,19.7,0,0,1,193.4,84.59Zm9.58-.07A11.23,11.23,0,0,0,203.9,89a12.71,12.71,0,0,0,2.43,3.77,11.14,11.14,0,0,0,3.61,2.58,10.53,10.53,0,0,0,4.45,1,10.06,10.06,0,0,0,4.33-1,11.74,11.74,0,0,0,3.62-2.58A12.14,12.14,0,0,0,224.77,89a11.72,11.72,0,0,0,.87-4.48,11.76,11.76,0,0,0-3.3-8.14,12.35,12.35,0,0,0-3.62-2.55,10.2,10.2,0,0,0-4.33-1,10.68,10.68,0,0,0-4.45,1,11.68,11.68,0,0,0-3.61,2.55,12.15,12.15,0,0,0-2.43,3.73A11.07,11.07,0,0,0,203,84.52Z" style="fill:none;stroke:#ecc63f;stroke-miterlimit:10;stroke-width:2px"/><path d="M267.62,82.31A8.64,8.64,0,0,0,265.15,76,8.32,8.32,0,0,0,259,73.49a8.92,8.92,0,0,0-3.45.68,8.43,8.43,0,0,0-2.82,1.91,8.94,8.94,0,0,0-1.86,2.81,8.5,8.5,0,0,0-.69,3.42v21.14h-10v-38h10v3.42a15.93,15.93,0,0,1,5.06-3.42,16,16,0,0,1,12.43.08,16.47,16.47,0,0,1,10,15.28v22.66h-10Z" style="fill:none;stroke:#ecc63f;stroke-miterlimit:10;stroke-width:2px"/><path d="M282.9,75.7a10.46,10.46,0,0,1,1.37-5.52,11.09,11.09,0,0,1,3.5-3.61,14.42,14.42,0,0,1,4.71-1.94,23,23,0,0,1,4.94-.57A16.73,16.73,0,0,1,305.64,66a19.8,19.8,0,0,1,5.85,4.83L304,75.77a11.36,11.36,0,0,0-2.66-2.32,7,7,0,0,0-3.73-1,7.72,7.72,0,0,0-3.15.69,2.44,2.44,0,0,0-1.56,2.43,3,3,0,0,0,1.79,2.66,34.14,34.14,0,0,0,4.67,2c1.37.46,2.78,1,4.22,1.6a17,17,0,0,1,4,2.36,12,12,0,0,1,3,3.53A10.56,10.56,0,0,1,311.8,93a10.8,10.8,0,0,1-1.37,5.63,11.35,11.35,0,0,1-3.5,3.69,14.28,14.28,0,0,1-4.75,2,22.18,22.18,0,0,1-5.06.61,17.11,17.11,0,0,1-8.71-2.13,27.07,27.07,0,0,1-6.57-5.32l7.45-5.4a16.34,16.34,0,0,0,3.15,2.93,7.63,7.63,0,0,0,4.6,1.4,9.08,9.08,0,0,0,1.6-.15,4.89,4.89,0,0,0,1.52-.53,3.31,3.31,0,0,0,1.14-1,2.71,2.71,0,0,0,.46-1.63,3.34,3.34,0,0,0-1.86-2.89,35.79,35.79,0,0,0-5.82-2.59c-1.22-.45-2.47-1-3.76-1.55a17.2,17.2,0,0,1-3.62-2.21A10.51,10.51,0,0,1,284,80.56,10,10,0,0,1,282.9,75.7Z" style="fill:none;stroke:#ecc63f;stroke-miterlimit:10;stroke-width:2px"/><path d="M316.28,98.89a6.11,6.11,0,1,1,1.79,4.29A5.86,5.86,0,0,1,316.28,98.89Z" style="fill:none;stroke:#ecc63f;stroke-miterlimit:10;stroke-width:2px"/><path d="M1,28.5a25.83,25.83,0,0,1,2.1-10.36A27.42,27.42,0,0,1,8.84,9.62a26.81,26.81,0,0,1,8.44-5.76,25.61,25.61,0,0,1,10.33-2.1A25.75,25.75,0,0,1,39.1,4.37a27.14,27.14,0,0,1,9,7l-7.9,6.09a17,17,0,0,0-5.54-4.24A16.47,16.47,0,0,0,21.27,13,16.55,16.55,0,0,0,16,16.58a17.17,17.17,0,0,0-3.55,5.36,16.66,16.66,0,0,0-1.3,6.56A16.41,16.41,0,0,0,12.46,35,17.22,17.22,0,0,0,16,40.35,17,17,0,0,0,21.27,44a15.6,15.6,0,0,0,6.41,1.34,15.85,15.85,0,0,0,7-1.56,17,17,0,0,0,5.54-4.24l7.9,6.09a27.14,27.14,0,0,1-9,7,25.75,25.75,0,0,1-11.49,2.61,25.61,25.61,0,0,1-10.33-2.1,26.81,26.81,0,0,1-8.44-5.76,27.42,27.42,0,0,1-5.73-8.52A25.84,25.84,0,0,1,1,28.5Z" style="fill:#fcfcfc"/><path d="M72.33,25.39a10.07,10.07,0,0,0-7.46,2.68,9.5,9.5,0,0,0-2.68,7V54H52.62V17.7h9.57v4.13a11.7,11.7,0,0,1,4.49-3.91,12.49,12.49,0,0,1,5.65-1.38Z" style="fill:#fcfcfc"/><path d="M83.06,39a11.78,11.78,0,0,0,3.84,5.84,9.91,9.91,0,0,0,6.53,2.35,9.75,9.75,0,0,0,4.85-1.26,11.08,11.08,0,0,0,3.7-3.37l8.33,3.4a20.31,20.31,0,0,1-7.1,7,19,19,0,0,1-9.86,2.61,19.55,19.55,0,0,1-14-5.73,20.24,20.24,0,0,1-4.24-6.23,19.34,19.34,0,0,1,0-15.22,20.24,20.24,0,0,1,4.24-6.23,19.55,19.55,0,0,1,14-5.73,19.25,19.25,0,0,1,7.36,1.41,20.63,20.63,0,0,1,6.09,3.84,19.67,19.67,0,0,1,4.28,5.69,19.09,19.09,0,0,1,1.92,7,4.1,4.1,0,0,1-1.16,3.38A5.22,5.22,0,0,1,108.07,39ZM103,32.42A11.26,11.26,0,0,0,99.3,27a9.3,9.3,0,0,0-6.09-2.22,9.9,9.9,0,0,0-3.34.58A10.25,10.25,0,0,0,87,27a12.17,12.17,0,0,0-2.28,2.42,10.4,10.4,0,0,0-1.48,3.05Z" style="fill:#fcfcfc"/><path d="M115.9,36a20.43,20.43,0,0,1,1.41-7.61,19.8,19.8,0,0,1,3.88-6.23,18.17,18.17,0,0,1,5.72-4.21,16.51,16.51,0,0,1,7-1.52,16.31,16.31,0,0,1,6.42,1.27,18.14,18.14,0,0,1,5.4,3.51V17.7h9.49V54h-9.49V50.76a18.14,18.14,0,0,1-5.4,3.51,16.31,16.31,0,0,1-6.42,1.27,16.51,16.51,0,0,1-7-1.52,18.17,18.17,0,0,1-5.72-4.21,19.8,19.8,0,0,1-3.88-6.23A20.43,20.43,0,0,1,115.9,36ZM125,35.9a11.2,11.2,0,0,0,.83,4.27,11.77,11.77,0,0,0,2.29,3.59,11,11,0,0,0,3.37,2.47,9.77,9.77,0,0,0,8.19,0A10.56,10.56,0,0,0,143,43.76a12.25,12.25,0,0,0,2.25-3.59,11.24,11.24,0,0,0,0-8.48A11.92,11.92,0,0,0,143,28.14a10.92,10.92,0,0,0-3.33-2.43,9.77,9.77,0,0,0-8.19,0,11.34,11.34,0,0,0-3.37,2.43,11.46,11.46,0,0,0-2.29,3.55A11.12,11.12,0,0,0,125,35.9Z" style="fill:#fcfcfc"/><path d="M166.49,25.46h-7V17.7h7V7.7H176v10h7v7.76h-7V54h-9.49Z" style="fill:#fcfcfc"/><path d="M186.49,7a5.58,5.58,0,0,1,1.71-4.1,5.78,5.78,0,0,1,8.19,0,5.61,5.61,0,0,1,1.7,4.1,5.59,5.59,0,0,1-1.7,4.09,5.78,5.78,0,0,1-8.19,0A5.56,5.56,0,0,1,186.49,7Zm1,10.72h9.57V54h-9.57Z" style="fill:#fcfcfc"/><path d="M201.35,17.7h9.93l9.79,23.63,9.71-23.63h9.93L226.14,50.47a8.85,8.85,0,0,1-1.95,2.86,4.32,4.32,0,0,1-3.12,1.2A4.38,4.38,0,0,1,218,53.37a9.25,9.25,0,0,1-2-2.9Z" style="fill:#fcfcfc"/><path d="M249.84,39a11.73,11.73,0,0,0,3.85,5.84,10.13,10.13,0,0,0,11.38,1.09,11,11,0,0,0,3.69-3.37L277.1,46a20.48,20.48,0,0,1-7.1,7,19.05,19.05,0,0,1-9.86,2.61,19.55,19.55,0,0,1-14-5.73,20.06,20.06,0,0,1-4.24-6.23,19.34,19.34,0,0,1,0-15.22,20.06,20.06,0,0,1,4.24-6.23,19.55,19.55,0,0,1,14-5.73,19.17,19.17,0,0,1,7.35,1.41,20.37,20.37,0,0,1,6.09,3.84,19.5,19.5,0,0,1,4.28,5.69,18.71,18.71,0,0,1,1.92,7,4.07,4.07,0,0,1-1.16,3.38A5.22,5.22,0,0,1,274.85,39Zm19.94-6.59a11.28,11.28,0,0,0-3.7-5.47A9.3,9.3,0,0,0,260,24.73a9.8,9.8,0,0,0-3.33.58,10.11,10.11,0,0,0-2.9,1.64,12.17,12.17,0,0,0-2.28,2.42A10.42,10.42,0,0,0,250,32.42Z" style="fill:#fcfcfc"/></g></svg>

    </symbol>
</svg>
